<svg xmlns="http://www.w3.org/2000/svg" width="872" height="463"><path fill="#231F20" d="M304.632 295.725v3.625c-.905-.197-1.612-.197-2.112 0-.406.206-.833.634-1.285 1.287-.454.655-.682 1.74-.682 3.249v62.717h.153v2.944c0 1.062-.054 2.095-.153 3.102v2.645c0 .454-.051.883-.149 1.282-.204 4.133-.631 7.859-1.285 11.188-.659 3.321-1.737 6.193-3.25 8.611a18.055 18.055 0 0 1-5.971 5.895c-2.47 1.51-5.667 2.466-9.595 2.869-4.031.201-7.481-.429-10.353-1.889-2.87-1.458-5.19-3.398-6.951-5.817a22.29 22.29 0 0 1-3.701-8.013c-.707-2.917-.908-5.667-.607-8.234.302-2.572 1.212-4.706 2.722-6.425 1.51-1.714 3.475-2.569 5.89-2.569 2.118 0 3.955.733 5.518 2.192 1.562 1.462 2.343 3.25 2.343 5.365 0 1.813-.555 3.376-1.664 4.684a8.647 8.647 0 0 1-4.078 2.723c-.207.102-.456.149-.756.149-1.613.506-2.519 1.611-2.719 3.325-.206 1.714.2 3.477 1.208 5.287 1.008 1.814 2.594 3.351 4.759 4.61 2.167 1.262 4.71 1.642 7.633 1.135 2.012-.403 3.675-1.158 4.987-2.271 1.308-1.106 2.365-2.489 3.171-4.153.806-1.666 1.385-3.551 1.741-5.669.348-2.112.628-4.332.831-6.645v-79.039c0-1.512-.228-2.595-.679-3.25-.453-.652-.934-1.08-1.436-1.287-.506-.198-1.11-.198-1.814 0v-3.626h18.283v.003zm55.913 38.383h-.303a.664.664 0 0 1-.3-.074.726.726 0 0 0-.302-.077c-.508 0-1.112.278-1.817.833-.707.553-1.057 1.789-1.057 3.7v28.792c0 3.575-.026 7.077-.077 10.503-.053 3.43-.075 6.473-.075 9.141v9.293c0 1.914.324 3.047.979 3.402.657.352 1.286.525 1.891.525.2 0 .353-.047.454-.152.1 0 .202-.046.302-.15v3.93h-14.203v-5.593c-.407.605-.783 1.115-1.134 1.513-.355.402-.783.858-1.286 1.363-1.511 1.411-3.323 2.519-5.439 3.322-.104 0-.15.026-.15.078 0 .047-.053.074-.153.074h-.149c-1.21.401-2.622.604-4.233.604h-.605c-5.139-.203-9.293-1.938-12.468-5.214-3.172-3.273-4.76-8.538-4.76-15.792v-21.915c0-3.021.023-5.942.075-8.762.048-2.82.078-5.341.078-7.557 0-2.215.023-3.981.074-5.287.051-1.312.074-2.015.074-2.116 0-1.913-.375-3.147-1.131-3.7-.756-.555-1.387-.831-1.889-.831-.202 0-.354.025-.454.073a.665.665 0 0 1-.305.074h-.3v-3.774h18.135v3.774h-.15a.641.641 0 0 1-.302-.074c-.103-.048-.253-.073-.455-.073-.604 0-1.207.225-1.813.677-.604.457-.959 1.492-1.058 3.099v8.009c0 3.228-.026 6.602-.073 10.126a696.319 696.319 0 0 0-.076 10.652v20.933c.202 5.139.83 8.763 1.89 10.878 1.057 2.115 2.794 3.226 5.213 3.327h.604c3.022 0 5.688-1.212 8.009-3.629 2.316-2.417 3.725-6.5 4.233-12.239 0-4.84.024-10.001.073-15.491.052-5.49.076-10.6.076-15.339v-16.472c0-1.913-.304-3.147-.907-3.7-.605-.555-1.209-.831-1.813-.831-.204 0-.354.025-.455.073a.65.65 0 0 1-.303.074h-.303v-3.774h18.134v3.774h.004zm35.061 68.763c-.102.103-.178.15-.226.15-.053 0-.128.051-.227.153l-.15.149a7.694 7.694 0 0 1-.679.304c-.253.102-.481.2-.682.303-2.116.908-4.584 1.359-7.407 1.359-1.612 0-3.173-.377-4.684-1.132a118.78 118.78 0 0 0-3.93-1.889c-1.109-.507-2.041-.729-2.797-.682-.755.052-1.132.781-1.132 2.193h-2.871v-18.136h3.626c-.203 3.225.153 5.994 1.059 8.312.604 2.015 1.788 3.906 3.552 5.665 1.759 1.766 4.403 2.647 7.933 2.647 2.316 0 4.232-.402 5.743-1.208 2.618-1.311 4.404-2.872 5.363-4.686.958-1.813 1.335-3.705 1.135-5.665-.204-1.969-.933-3.904-2.192-5.821-1.26-1.914-2.795-3.674-4.607-5.289a341.051 341.051 0 0 1-3.78-2.869 104.235 104.235 0 0 1-3.929-3.173c-3.526-2.823-6.323-5.366-8.389-7.632-2.064-2.271-3.652-4.383-4.758-6.346-1.11-1.971-1.866-3.831-2.267-5.593-.406-1.763-.605-3.651-.605-5.668 0-1.207.075-2.314.226-3.326a28.44 28.44 0 0 1 .529-2.72 21.812 21.812 0 0 1 1.511-4.983 13.264 13.264 0 0 1 3.024-4.307c1.306-1.26 2.919-2.292 4.835-3.1 1.913-.806 4.23-1.209 6.95-1.209 1.514 0 3.023.329 4.536.981 1.512.657 2.871 1.261 4.08 1.812 1.209.556 2.167.806 2.871.759.706-.049 1.058-.829 1.058-2.344h2.871v18.738h-3.929c.099-3.022-.253-5.741-1.057-8.161-.707-2.114-1.941-4.026-3.704-5.74-1.764-1.712-4.359-2.57-7.781-2.57-2.72 0-4.939.604-6.649 1.813-.905.704-1.689 1.74-2.343 3.097-.658 1.361-1.036 2.85-1.131 4.458-.104 1.615.148 3.35.753 5.217.604 1.861 1.816 3.601 3.626 5.214.202.3.476.603.831.907.354.301.73.552 1.134.756.301.203.553.399.756.604.2.203.402.404.604.604a228.518 228.518 0 0 0 6.952 5.439c2.82 2.417 5.16 4.607 7.026 6.573 1.863 1.965 3.424 3.804 4.686 5.516 1.256 1.714 2.189 3.324 2.795 4.834.606 1.513.955 2.975 1.059 4.384 1.003 4.637.828 8.539-.53 11.712-1.359 3.176-3.099 5.667-5.215 7.482h-.15c0 .199-.102.304-.305.304-.2.2-.401.352-.602.451-.302.204-.605.401-.906.604a3.638 3.638 0 0 1-.907.452v.154a.627.627 0 0 0-.302.076.7.7 0 0 1-.301.073m53.496-11.333c0 3.523-1.107 6.396-3.321 8.611-1.511 1.513-3.276 2.722-5.29 3.63-2.018.906-4.184 1.359-6.5 1.359-3.426 0-6.448-.959-9.067-2.87-2.621-1.915-4.534-4.434-5.743-7.556a14.005 14.005 0 0 1-.679-2.494c-.153-.854-.228-1.837-.228-2.945 0-.304-.025-.781-.075-1.438a29.78 29.78 0 0 1-.075-2.343c0-.91-.025-1.761-.078-2.565a34.1 34.1 0 0 1-.074-2.118v-46.395h-10.426v-4.08h10.426v-26.447c0-1.51-.225-2.594-.68-3.249-.452-.653-.883-1.08-1.284-1.288-.506-.197-1.16-.197-1.963 0v-3.626H428.4v34.607h12.695v4.08H428.4v8.464c0 3.021-.026 6.522-.075 10.503a949.949 949.949 0 0 0-.076 12.39v20.629c0 2.417.049 3.929.152 4.533.705 3.63 1.813 6.023 3.325 7.179 1.512 1.158 3.272 1.74 5.289 1.74 2.315 0 4.33-.78 6.044-2.344 1.712-1.56 2.622-3.552 2.722-5.968h3.321v.001zm76.318 4.231c.2 1.407.628 2.414 1.282 3.022.654.601 1.385 1.006 2.192 1.205.804.205 1.713.205 2.721 0v3.779h-22.216v-3.779c.907.205 1.714.205 2.419 0 .504-.201.953-.604 1.357-1.205.403-.608.504-1.616.305-3.022 0-.199-.278-1.988-.83-5.367-.559-3.374-1.236-7.832-2.043-13.375h-19.343c-1.007 5.543-1.791 10.001-2.343 13.375-.557 3.379-.829 5.168-.829 5.367-.304 1.407-.282 2.414.073 3.022.352.601.78 1.006 1.285 1.205.605.205 1.411.205 2.417 0v3.779h-14.506v-3.779a6.096 6.096 0 0 0 2.721 0c.803-.201 1.533-.604 2.189-1.205.656-.608 1.131-1.616 1.435-3.022 0-.1.251-1.589.755-4.46.505-2.871 1.186-6.65 2.044-11.334.854-4.684 1.835-9.997 2.945-15.94a2290.59 2290.59 0 0 0 3.326-18.289l9.064-49.565h7.71c2.92 18.435 5.54 34.907 7.856 49.414a2234.022 2234.022 0 0 1 2.874 18.288c.903 5.944 1.737 11.257 2.49 15.94.758 4.687 1.385 8.49 1.893 11.41.502 2.924.757 4.436.757 4.536m-33.552-22.67h18.285c-.602-4.128-1.284-8.562-2.04-13.299-.756-4.731-1.511-9.492-2.266-14.278-.757-4.786-1.511-9.443-2.266-13.979-.757-4.536-1.438-8.711-2.045-12.542a394.584 394.584 0 0 0-2.414 12.542 12818.6 12818.6 0 0 1-2.498 13.979c-.852 4.786-1.684 9.547-2.492 14.278-.801 4.737-1.56 9.17-2.264 13.299m86.29-32.341c0 .207.052.604.152 1.21.101.602.101 1.111 0 1.509-.1 2.116-.832 3.856-2.188 5.216-1.362 1.362-2.999 2.039-4.912 2.039-2.018 0-3.702-.701-5.061-2.114-1.363-1.409-2.042-3.122-2.042-5.14 0-2.513.955-4.431 2.866-5.741.203-.098.329-.171.378-.226l.229-.227c.705-.505 1.16-1.232 1.361-2.189.203-.957-.404-1.79-1.813-2.496-.905-.503-1.813-.756-2.718-.756-3.021-.201-5.695.706-8.011 2.72-2.316 2.018-3.88 5.54-4.684 10.582v50.472c0 1.411.198 2.444.604 3.097.4.658.805 1.036 1.207 1.137.605.3 1.259.3 1.967 0v3.927h-18.285v-3.927c.808.3 1.411.3 1.812 0 .505-.101 1.01-.479 1.512-1.137.504-.652.755-1.686.755-3.097V338.04c0-1.411-.251-2.444-.755-3.1-.503-.652-1.008-1.081-1.512-1.284-.4-.2-1.006-.2-1.812 0v-3.777h14.508v6.197a51.086 51.086 0 0 1 2.116-3.098c.7-.959 1.536-1.766 2.49-2.421.958-.65 2.065-1.182 3.326-1.586 1.26-.401 2.848-.605 4.762-.605 2.919 0 5.644 1.06 8.158 3.176 2.517 2.114 4.384 5.191 5.59 9.216m43.223 50.78c0 3.523-1.11 6.396-3.322 8.611-1.515 1.513-3.281 2.722-5.295 3.63s-4.182 1.359-6.497 1.359c-3.425 0-6.446-.959-9.068-2.87-2.618-1.915-4.535-4.434-5.741-7.556a13.928 13.928 0 0 1-.682-2.494c-.148-.854-.222-1.837-.222-2.945 0-.304-.031-.781-.079-1.438a29.401 29.401 0 0 1-.073-2.343c0-.91-.03-1.761-.081-2.565a35.478 35.478 0 0 1-.071-2.118v-46.395h-10.431v-4.08h10.431v-26.447c0-1.51-.226-2.594-.686-3.249-.448-.653-.882-1.08-1.281-1.288-.504-.197-1.159-.197-1.963 0v-3.626h14.354v34.607h12.692v4.08h-12.692v8.464c0 3.021-.026 6.522-.078 10.503a969.258 969.258 0 0 0-.073 12.39v20.629c0 2.417.052 3.929.151 4.533.703 3.63 1.813 6.023 3.326 7.179 1.508 1.158 3.269 1.74 5.291 1.74 2.312 0 4.327-.78 6.042-2.344 1.712-1.56 2.617-3.552 2.725-5.968h3.323v.001zm-355.616 34.851a2.392 2.392 0 0 0-1.059-.936 3.385 3.385 0 0 0-1.378-.291c-.352 0-.701.046-1.037.132-.342.088-.646.22-.917.396-.272.178-.488.41-.652.703a2.028 2.028 0 0 0-.245 1.017c0 .304.048.573.14.801.094.234.249.447.465.637.213.189.503.362.867.532.366.16.811.324 1.342.487a21.75 21.75 0 0 1 1.503.53c.484.186.913.427 1.282.715.373.288.668.65.89 1.087.22.434.33.98.33 1.632 0 .671-.133 1.25-.397 1.738a3.66 3.66 0 0 1-1.049 1.222 4.587 4.587 0 0 1-1.502.714 6.46 6.46 0 0 1-1.756.238c-.393 0-.782-.035-1.174-.102a5.8 5.8 0 0 1-1.124-.325 4.64 4.64 0 0 1-1.011-.566 3.357 3.357 0 0 1-.812-.861l1.359-1.112c.29.491.692.864 1.21 1.112a3.713 3.713 0 0 0 2.673.23c.348-.102.658-.248.936-.443.276-.198.501-.44.679-.727.176-.293.267-.624.267-1.005 0-.414-.07-.754-.211-1.011a1.84 1.84 0 0 0-.64-.669 5.072 5.072 0 0 0-1.099-.514c-.44-.149-.956-.327-1.547-.525-.479-.152-.92-.327-1.322-.521a3.933 3.933 0 0 1-1.05-.718 3.031 3.031 0 0 1-.698-1.019c-.168-.395-.256-.873-.256-1.425 0-.643.126-1.204.379-1.683.25-.479.592-.879 1.021-1.197a4.55 4.55 0 0 1 1.455-.728 5.82 5.82 0 0 1 1.699-.249c.757 0 1.445.12 2.067.35.625.237 1.183.644 1.673 1.222l-1.301 1.132zm38.119-2.36h1.588v5.668h7.14v-5.668h1.585v13.373h-1.585v-6.233h-7.14v6.233h-1.588zm53.819 13.714c-1.02 0-1.954-.178-2.806-.529a6.724 6.724 0 0 1-2.209-1.464 6.578 6.578 0 0 1-1.456-2.228c-.347-.866-.52-1.799-.52-2.806s.173-1.94.52-2.805a6.5 6.5 0 0 1 1.456-2.229 6.768 6.768 0 0 1 2.209-1.465c.85-.352 1.786-.528 2.806-.528 1.021 0 1.956.177 2.807.528.85.355 1.587.841 2.208 1.465a6.588 6.588 0 0 1 1.456 2.229c.343.864.519 1.799.519 2.805a7.528 7.528 0 0 1-.519 2.806 6.535 6.535 0 0 1-1.456 2.228 6.74 6.74 0 0 1-2.208 1.464c-.851.351-1.785.529-2.807.529m0-1.476a5.24 5.24 0 0 0 2.145-.432 5.018 5.018 0 0 0 1.67-1.194 5.38 5.38 0 0 0 1.088-1.76 6.092 6.092 0 0 0 .386-2.169c0-.765-.13-1.487-.386-2.162a5.394 5.394 0 0 0-1.088-1.763 5.053 5.053 0 0 0-1.67-1.192 5.22 5.22 0 0 0-2.145-.433c-.782 0-1.497.144-2.144.433a5.107 5.107 0 0 0-1.673 1.192 5.401 5.401 0 0 0-1.084 1.763 5.968 5.968 0 0 0-.39 2.162c0 .771.13 1.491.39 2.169a5.405 5.405 0 0 0 1.084 1.76c.466.51 1.024.905 1.673 1.194a5.218 5.218 0 0 0 2.144.432m41.955-12.238h1.758l3.041 11.108h.037l3.288-11.108h1.775l3.268 11.108h.038l3.098-11.108h1.664l-3.932 13.373h-1.717l-3.308-11.333h-.036l-3.325 11.333h-1.74zm53.705 0h3.421c.642 0 1.279.037 1.916.112a5.082 5.082 0 0 1 1.709.491 3.1 3.1 0 0 1 1.229 1.104c.314.486.471 1.143.471 1.976 0 .979-.294 1.772-.885 2.38-.593.603-1.41.989-2.457 1.152l3.799 6.157h-1.949l-3.625-6.008h-2.041v6.008h-1.587v-13.372zm1.587 5.891h1.417c.439 0 .898-.012 1.372-.036a4.547 4.547 0 0 0 1.301-.244c.398-.14.727-.354.984-.654.257-.291.387-.718.387-1.271 0-.478-.094-.863-.283-1.153a1.913 1.913 0 0 0-.747-.669 3.077 3.077 0 0 0-1.038-.313 9.418 9.418 0 0 0-1.161-.077h-2.231v4.417zm50.135 7.823c-1.02 0-1.955-.178-2.805-.529a6.726 6.726 0 0 1-2.212-1.464 6.554 6.554 0 0 1-1.452-2.228c-.35-.866-.52-1.799-.52-2.806s.17-1.94.52-2.805a6.52 6.52 0 0 1 1.452-2.229 6.76 6.76 0 0 1 2.212-1.465c.85-.352 1.785-.528 2.805-.528 1.019 0 1.954.177 2.804.528.85.355 1.589.841 2.214 1.465a6.62 6.62 0 0 1 1.451 2.229c.351.864.52 1.799.52 2.805 0 1.007-.168 1.939-.52 2.806a6.567 6.567 0 0 1-1.451 2.228 6.787 6.787 0 0 1-2.214 1.464c-.85.351-1.785.529-2.804.529m0-1.476c.777 0 1.498-.144 2.146-.432a5.077 5.077 0 0 0 1.672-1.194 5.473 5.473 0 0 0 1.084-1.76c.259-.678.39-1.396.39-2.169 0-.765-.131-1.487-.39-2.162a5.487 5.487 0 0 0-1.084-1.763 5.113 5.113 0 0 0-1.672-1.192 5.225 5.225 0 0 0-2.146-.433c-.78 0-1.495.144-2.144.433a5.1 5.1 0 0 0-1.674 1.192 5.382 5.382 0 0 0-1.083 1.763 5.926 5.926 0 0 0-.391 2.162c0 .771.129 1.491.391 2.169a5.368 5.368 0 0 0 1.083 1.76c.462.51 1.025.905 1.674 1.194a5.218 5.218 0 0 0 2.144.432m49.72 1.476c-1.021 0-1.954-.178-2.804-.529a6.768 6.768 0 0 1-2.212-1.464 6.556 6.556 0 0 1-1.453-2.228c-.346-.865-.523-1.799-.523-2.806s.178-1.94.523-2.805a6.522 6.522 0 0 1 1.453-2.229 6.802 6.802 0 0 1 2.212-1.465c.85-.352 1.782-.528 2.804-.528s1.954.177 2.804.528a6.767 6.767 0 0 1 2.21 1.465 6.543 6.543 0 0 1 1.456 2.229c.347.864.519 1.799.519 2.805a7.449 7.449 0 0 1-.519 2.806 6.506 6.506 0 0 1-1.456 2.228 6.749 6.749 0 0 1-2.21 1.464c-.85.351-1.783.529-2.804.529m0-1.476c.779 0 1.494-.144 2.144-.432a5.006 5.006 0 0 0 1.672-1.194 5.46 5.46 0 0 0 1.086-1.76 6.027 6.027 0 0 0 .387-2.169c0-.765-.129-1.487-.387-2.162a5.475 5.475 0 0 0-1.086-1.763 5.04 5.04 0 0 0-1.672-1.192 5.212 5.212 0 0 0-2.144-.433c-.781 0-1.496.144-2.146.433a5.117 5.117 0 0 0-1.673 1.192 5.495 5.495 0 0 0-1.087 1.763 5.987 5.987 0 0 0-.386 2.162c0 .771.127 1.491.386 2.169a5.48 5.48 0 0 0 1.087 1.76c.466.51 1.021.905 1.673 1.194.65.288 1.364.432 2.146.432m43.502-12.238h2.363l4.532 10.481h.038l4.573-10.481h2.302v13.373h-1.585v-11.219h-.036l-4.802 11.219h-.962l-4.799-11.219h-.035v11.219h-1.589z"/><path fill="#FFDD15" d="M257.755 17h363.354v245.426H257.755z"/><path fill="#2E3191" d="M296.628 76.528h95.201v116.737h-95.201z"/><path fill="#EB008B" d="M391.829 110.529h95.2v116.734h-95.2z"/><path fill="#EB008B" d="M486.274 52.159h95.203v116.74h-95.203z"/></svg>